<mxfile host="app.diagrams.net" modified="2023-06-07T07:03:58.889Z" agent="Mozilla/5.0 (Windows NT 10.0; Win64; x64) AppleWebKit/537.36 (KHTML, like Gecko) Chrome/114.0.0.0 Safari/537.36" etag="9q8wiRo7_03Uw1znVLiH" version="21.3.7" type="github">
  <diagram id="C5RBs43oDa-KdzZeNtuy" name="Page-1">
    <mxGraphModel dx="538" dy="294" grid="1" gridSize="10" guides="1" tooltips="1" connect="1" arrows="1" fold="1" page="1" pageScale="1" pageWidth="827" pageHeight="1169" math="0" shadow="0">
      <root>
        <mxCell id="WIyWlLk6GJQsqaUBKTNV-0" />
        <mxCell id="WIyWlLk6GJQsqaUBKTNV-1" parent="WIyWlLk6GJQsqaUBKTNV-0" />
        <mxCell id="JNcDE3fhXQPRFPNpTkl1-4" value="Restoranlar jadvali" style="swimlane;whiteSpace=wrap;html=1;" vertex="1" parent="WIyWlLk6GJQsqaUBKTNV-1">
          <mxGeometry x="40" y="200" width="190" height="190" as="geometry" />
        </mxCell>
        <mxCell id="JNcDE3fhXQPRFPNpTkl1-5" value="restaurant_id (Primary Key)" style="text;html=1;strokeColor=none;fillColor=none;align=center;verticalAlign=middle;whiteSpace=wrap;rounded=0;" vertex="1" parent="JNcDE3fhXQPRFPNpTkl1-4">
          <mxGeometry x="10" y="30" width="160" height="20" as="geometry" />
        </mxCell>
        <mxCell id="JNcDE3fhXQPRFPNpTkl1-6" value="nomi" style="text;html=1;strokeColor=none;fillColor=none;align=center;verticalAlign=middle;whiteSpace=wrap;rounded=0;" vertex="1" parent="JNcDE3fhXQPRFPNpTkl1-4">
          <mxGeometry x="10" y="50" width="40" height="20" as="geometry" />
        </mxCell>
        <mxCell id="JNcDE3fhXQPRFPNpTkl1-8" value="manzil" style="text;html=1;strokeColor=none;fillColor=none;align=center;verticalAlign=middle;whiteSpace=wrap;rounded=0;" vertex="1" parent="JNcDE3fhXQPRFPNpTkl1-4">
          <mxGeometry x="10" y="70" width="50" height="30" as="geometry" />
        </mxCell>
        <mxCell id="JNcDE3fhXQPRFPNpTkl1-9" value="telefon raqami" style="text;html=1;strokeColor=none;fillColor=none;align=center;verticalAlign=middle;whiteSpace=wrap;rounded=0;" vertex="1" parent="JNcDE3fhXQPRFPNpTkl1-4">
          <mxGeometry x="10" y="100" width="90" height="30" as="geometry" />
        </mxCell>
        <mxCell id="JNcDE3fhXQPRFPNpTkl1-10" value="oshxona_turi" style="text;html=1;strokeColor=none;fillColor=none;align=center;verticalAlign=middle;whiteSpace=wrap;rounded=0;" vertex="1" parent="JNcDE3fhXQPRFPNpTkl1-4">
          <mxGeometry y="130" width="100" height="30" as="geometry" />
        </mxCell>
      </root>
    </mxGraphModel>
  </diagram>
</mxfile>
